# xmcd CD database file
#
# Track frame offsets:
#	150
#	7700
#	25394
#	32964
#	45085
#	55142
#	70703
#	81845
#	94022
#	105227
#	117637
#	132471
#	148576
#	161178
#	173345
#	185341
#
# Disc length: 2643 seconds
#
# Revision: 0
# Processed by: cddbd v1.5.2PL0 Copyright (c) Steve Scherf et al.
# Submitted via: CDex 1.70beta2
#
DISCID=c60a5110
DTITLE=Various Artist - Country Legends - Honky Tonkin'
DYEAR=2005
DGENRE=Country
TTITLE0=Thinkin Of Me - Mickey Gilley
TTITLE1=Something's Burning - Kenny Rogers
TTITLE2=Puppy Love - Dolly Parton
TTITLE3=Me And Bobby McGee - Loretta Lynn
TTITLE4=Hello Walls - Faron Young
TTITLE5=C B Savage - Rod Hart
TTITLE6=It's Only Make Believe - Conway Twitty
TTITLE7=Okie From Muskogee - merle Haggard
TTITLE8=Just Out Of Reach - Patsy Cline
TTITLE9=Country Willie - Willie Nelson
TTITLE10=You're The Best Break This Old Heart Ever Had - Ed bruce
TTITLE11=Devil Went Down To Georgia - Lynn Anderson
TTITLE12=Honky Tonkin - Hank Williams
TTITLE13=Look What They've Done To My Song Ma - Billie Jo Spears
TTITLE14=Jealousy - Jerry Wallace
TTITLE15=Daddy - Donna Fargo
EXTD=YEAR: 2005
EXTT0=
EXTT1=
EXTT2=
EXTT3=
EXTT4=
EXTT5=
EXTT6=
EXTT7=
EXTT8=
EXTT9=
EXTT10=
EXTT11=
EXTT12=
EXTT13=
EXTT14=
EXTT15=
PLAYORDER=
